<?xml version="1.0" encoding="utf-8"?>
<!-- Generator: Adobe Illustrator 23.0.0, SVG Export Plug-In . SVG Version: 6.00 Build 0)  -->
<svg version="1.1" id="Layer_1" xmlns="http://www.w3.org/2000/svg" xmlns:xlink="http://www.w3.org/1999/xlink" x="0px" y="0px"
	 viewBox="0 0 91.04 51.08" style="enable-background:new 0 0 91.04 51.08;" xml:space="preserve">
<style type="text/css">
	.st0{fill:#231F20;}
</style>
<rect y="14.08" class="st0" width="17.58" height="0.4"/>
<rect x="73.47" y="14.08" class="st0" width="17.56" height="0.4"/>
<path class="st0" d="M60.01,13.98l-1.87-5.12l-4.58,3.17l-8.04-12.2l-8.04,12.2l-4.58-3.17l-1.87,5.12L18.57,6.89L18.3,7.2
	l10.48,14.17l2.48-6.78l3.67,2.09l2.67-4.05l7.71,5.34v0h0.01l0.21,0.14l0.21-0.14h0v0l7.71-5.34l2.67,4.05l3.67-2.09l2.48,6.78
	L72.74,7.2l-0.27-0.31L60.01,13.98z M19.23,7.75l11.12,6.32H23.9L19.23,7.75z M28.65,20.49l-4.43-6h6.63L28.65,20.49z M36.94,12.17
	l-2.84,0.37L33.38,9.7L36.94,12.17z M32.99,9.87l0.71,2.8l-2.16,1.17L32.99,9.87z M31.58,14.29l2.23-1.2l0.73,2.88L31.58,14.29z
	 M34.95,15.88l-0.74-2.93l2.93-0.38L34.95,15.88z M45.31,17.46l-7.32-5.07l7.32-2.3V17.46z M45.31,9.64l-7.25,2.28l7.25-11.01V9.64z
	 M45.73,0.92l7.25,11.01l-7.25-2.28V0.92z M45.73,17.46v-7.37l7.32,2.3L45.73,17.46z M57.66,9.7l-0.72,2.84l-2.84-0.37L57.66,9.7z
	 M56.09,15.88l-2.18-3.32l2.93,0.38L56.09,15.88z M56.51,15.97l0.73-2.88l2.22,1.2L56.51,15.97z M57.34,12.67l0.71-2.8l1.45,3.97
	L57.34,12.67z M62.39,20.49l-2.19-6h6.63L62.39,20.49z M67.14,14.07H60.7l11.12-6.32L67.14,14.07z"/>
<path class="st0" d="M14.71,32.97V31.4c0-0.06-0.01-0.11-0.03-0.16c0.01-0.04,0.02-0.08,0.02-0.13c0-0.22-0.16-0.46-0.45-0.46H6.92
	c-0.29,0-0.45,0.24-0.45,0.46c0,0.23,0.16,0.47,0.45,0.47h6.85v2.15c0,0.92-0.66,1.59-1.58,1.59H2.56c-0.92,0-1.61-0.65-1.61-1.51
	v-4.98l0-0.1c0-0.23,0-0.45,0.05-0.67c0.16-0.62,0.76-1.08,1.44-1.09c0.36-0.01,0.75-0.01,1.19-0.01c0.4,0,0.8,0,1.2,0.01
	c0.4,0,0.8,0.01,1.2,0.01h8.21c0.29,0,0.45-0.24,0.45-0.46c0-0.22-0.16-0.46-0.45-0.46H2.68c-1.01,0-1.77,0.38-2.28,1.12
	c-0.41,0.6-0.4,1.31-0.38,1.99c0,0.11,0,0.23,0,0.34v3.05c0,0.14,0,0.29-0.01,0.44c-0.02,0.6-0.03,1.21,0.18,1.76
	c0.38,0.95,1.29,1.52,2.42,1.52h9.62c1.28,0,2.32-0.94,2.47-2.23c0.03-0.25,0.02-0.51,0.02-0.76
	C14.71,33.17,14.71,33.07,14.71,32.97"/>
<path class="st0" d="M26.66,27.1c0.24-0.12,0.55-0.14,0.82-0.14c0.09,0,0.19,0,0.28,0c0.09,0,0.18,0,0.26,0h11.05
	c0.3,0,0.46-0.24,0.46-0.46c0-0.22-0.16-0.46-0.46-0.46H27.51c-1.01,0-1.77,0.38-2.27,1.12c-0.41,0.61-0.4,1.32-0.39,2
	c0,0.11,0,0.22,0,0.33v3.05c0,0.14,0,0.28-0.01,0.43c-0.01,0.6-0.03,1.22,0.18,1.77c0.37,0.94,1.29,1.52,2.39,1.52h11.65
	c0.3,0,0.46-0.24,0.46-0.47c0-0.22-0.16-0.47-0.46-0.47h-9.72l-2.01,0c-0.08,0-0.16,0-0.24-0.01c-0.7-0.05-1.19-0.66-1.31-1.25
	c-0.03-0.15-0.02-0.33-0.02-0.5c0-0.06,0-0.12,0-0.17v-1.82h13.29c0.3,0,0.46-0.24,0.46-0.47c0-0.23-0.16-0.46-0.46-0.46H25.78
	v-2.18C25.78,27.89,26.11,27.38,26.66,27.1"/>
<path class="st0" d="M63.85,31.09c0.52-0.39,0.87-1,0.94-1.65c0.06-0.49,0.05-1-0.02-1.44c-0.11-0.71-0.62-1.37-1.31-1.72
	c-0.46-0.23-0.95-0.25-1.37-0.25c-0.07,0-0.14,0-0.21,0c-0.07,0-0.14,0-0.21,0h-8.34c-0.09,0-0.18,0-0.27,0c-0.09,0-0.19,0-0.28,0
	c-0.35,0-0.73,0.02-1.1,0.14c-0.99,0.35-1.6,1.3-1.6,2.48v7.13c0,0.3,0.24,0.46,0.47,0.46c0.23,0,0.46-0.16,0.46-0.46v-4.21h9.85
	l1.09,0c0.14,0,0.27,0,0.41-0.01c0.56,0.05,0.95,0.21,1.23,0.5c0.41,0.42,0.4,1.02,0.39,1.6c0,0.09,0,0.18,0,0.27v1.84
	c0,0.3,0.24,0.46,0.46,0.46c0.22,0,0.46-0.16,0.46-0.46v-2.42c0-0.42-0.03-0.88-0.24-1.36C64.47,31.65,64.2,31.33,63.85,31.09
	 M50.99,28.71c0-0.22,0-0.44,0.05-0.65c0.15-0.62,0.76-1.08,1.44-1.09c0.4-0.01,0.84-0.01,1.34-0.01c0.45,0,0.89,0,1.34,0.01
	c0.45,0,0.89,0.01,1.34,0.01h5.88c0.55,0,1.05,0.3,1.33,0.81c0.18,0.33,0.18,0.74,0.17,1.14c0,0.08,0,0.15,0,0.23
	c0,0.64-0.41,1.21-1.03,1.42c-0.1,0.04-0.22,0.06-0.36,0.07c-0.2-0.01-0.41,0-0.62,0c-0.11,0-0.23,0.01-0.34,0.01H50.99V28.71z"/>
<path class="st0" d="M90.9,27.55c-0.24-0.69-0.8-1.23-1.54-1.49c-0.32-0.11-0.68-0.12-0.96-0.12c-0.11,0-0.23,0-0.34,0.01
	c-0.11,0-0.21,0.01-0.31,0.01h-8.31c-0.07,0-0.15,0-0.22,0c-0.07,0-0.15,0-0.23,0c-0.13,0-0.32,0-0.49,0.02
	c-1.18,0.13-2.1,1.15-2.14,2.37l0,0.03v5.48c0,0.69,0.31,1.36,0.84,1.83c0.62,0.55,1.37,0.6,2.08,0.6h8.27c0.12,0,0.24,0,0.36,0
	c0.12,0,0.25,0,0.37,0c0.25,0,0.45-0.01,0.63-0.03c1.24-0.14,2.14-1.2,2.14-2.52V28.6C91.04,28.27,91.02,27.91,90.9,27.55
	 M90.11,28.5v5.13c0,0.31-0.02,0.64-0.2,0.96c-0.25,0.45-0.76,0.74-1.3,0.74h-7.46l-2.28,0c-0.09,0-0.18,0-0.26-0.01
	c-0.7-0.05-1.18-0.66-1.31-1.25c-0.03-0.14-0.02-0.32-0.02-0.48c0-0.06,0-0.13,0-0.19v-5.04c0.02-0.68,0.45-1.24,1.1-1.44
	c0.16-0.05,0.33-0.05,0.51-0.05h9.69C89.47,26.87,90.11,27.56,90.11,28.5 M76.51,28.37L76.51,28.37l-0.09,0L76.51,28.37z"/>
<path class="st0" d="M81.04,25.23c0.12,0,0.23-0.05,0.33-0.14l2.52-2.52c0.18-0.18,0.18-0.48,0-0.66c-0.18-0.18-0.49-0.18-0.66,0
	l-2.52,2.52c-0.09,0.09-0.14,0.2-0.14,0.33c0,0.12,0.05,0.24,0.14,0.33C80.8,25.18,80.92,25.23,81.04,25.23"/>
<path class="st0" d="M85.19,25.23c0.12,0,0.24-0.05,0.33-0.14l2.52-2.52c0.18-0.18,0.18-0.48,0-0.66c-0.18-0.18-0.49-0.18-0.66,0
	l-2.52,2.52c-0.18,0.18-0.18,0.48,0,0.66C84.96,25.18,85.07,25.23,85.19,25.23"/>
<path class="st0" d="M15.03,46.01l-0.2,0.15c-0.23-0.76-0.79-1.1-1.68-1.1c-0.98,0-1.59,0.51-1.59,1.18c0,0.62,0.41,0.93,1.75,1.16
	c1.32,0.23,1.8,0.61,1.8,1.35c0,0.79-0.75,1.34-1.86,1.34c-1.07,0-1.86-0.43-2.08-1.3l0.21-0.14c0.17,0.83,0.91,1.23,1.87,1.23
	c0.92,0,1.63-0.4,1.63-1.12c0-0.59-0.42-0.92-1.62-1.12c-1.45-0.25-1.93-0.62-1.93-1.38c0-0.75,0.68-1.4,1.82-1.4
	C14.1,44.85,14.75,45.21,15.03,46.01"/>
<polygon class="st0" points="20.3,49.8 20.3,50.01 16.43,50.01 16.43,49.81 19.89,45.13 16.49,45.13 16.49,44.93 20.16,44.93 
	20.16,45.13 16.7,49.8 "/>
<path class="st0" d="M25.54,49.8v0.21h-3.53v-5.08h3.41v0.21h-3.18v2.18h2.53v0.21h-2.53v2.28H25.54z M23.77,44.29h-0.2l0.55-1.14
	h0.27L23.77,44.29z"/>
<path class="st0" d="M30.6,46.37c0,0.91-0.65,1.45-1.73,1.45h-1.39v2.19h-0.23v-5.08h1.62C29.95,44.93,30.6,45.47,30.6,46.37
	 M30.37,46.37c0-0.78-0.55-1.24-1.51-1.24h-1.37v2.48h1.37C29.82,47.61,30.37,47.16,30.37,46.37"/>
<path class="st0" d="M35.89,46.01l-0.2,0.15c-0.23-0.76-0.79-1.1-1.68-1.1c-0.98,0-1.59,0.51-1.59,1.18c0,0.62,0.41,0.93,1.75,1.16
	c1.32,0.23,1.8,0.61,1.8,1.35c0,0.79-0.75,1.34-1.86,1.34c-1.07,0-1.86-0.43-2.08-1.3l0.21-0.14c0.17,0.83,0.91,1.23,1.87,1.23
	c0.92,0,1.63-0.4,1.63-1.12c0-0.59-0.41-0.92-1.62-1.12c-1.45-0.25-1.93-0.62-1.93-1.38c0-0.75,0.68-1.4,1.82-1.4
	C34.97,44.85,35.61,45.21,35.89,46.01"/>
<path class="st0" d="M41.37,49.8v0.21h-3.53v-5.08h3.41v0.21h-3.18v2.18h2.53v0.21h-2.53v2.28H41.37z M39.61,44.29h-0.2l0.55-1.14
	h0.27L39.61,44.29z"/>
<path class="st0" d="M46.85,47.58v2.43h-0.2l-0.01-1.05c-0.24,0.7-0.87,1.13-1.85,1.13c-1.36,0-2.25-1.01-2.25-2.62
	c0-1.61,0.91-2.62,2.28-2.62c1.05,0,1.7,0.43,1.98,1.3l-0.21,0.11c-0.25-0.8-0.84-1.2-1.78-1.2c-1.22,0-2.04,0.92-2.04,2.41
	c0,1.49,0.78,2.41,2.02,2.41c1.38,0,1.82-1.02,1.82-1.73v-0.35h-1.8v-0.21H46.85z"/>
<path class="st0" d="M52.34,46.01l-0.2,0.15c-0.23-0.76-0.79-1.1-1.68-1.1c-0.98,0-1.59,0.51-1.59,1.18c0,0.62,0.41,0.93,1.75,1.16
	c1.32,0.23,1.8,0.61,1.8,1.35c0,0.79-0.75,1.34-1.86,1.34c-1.07,0-1.86-0.43-2.08-1.3l0.21-0.14c0.17,0.83,0.91,1.23,1.87,1.23
	c0.92,0,1.63-0.4,1.63-1.12c0-0.59-0.42-0.92-1.62-1.12c-1.45-0.25-1.93-0.62-1.93-1.38c0-0.75,0.68-1.4,1.82-1.4
	C51.42,44.85,52.06,45.21,52.34,46.01"/>
<polygon class="st0" points="57.61,49.8 57.61,50.01 53.74,50.01 53.74,49.81 57.21,45.13 53.81,45.13 53.81,44.93 57.48,44.93 
	57.48,45.13 54.01,49.8 "/>
<path class="st0" d="M62.45,48.29h-2.51l-0.7,1.71h-0.25l2.07-5.08h0.27l2.06,5.08h-0.25L62.45,48.29z M62.36,48.08l-1.02-2.48
	l-0.15-0.43l-0.15,0.42l-1.01,2.5H62.36z"/>
<polygon class="st0" points="68.41,49.8 68.41,50.01 65.04,50.01 65.04,44.93 65.27,44.93 65.27,49.8 "/>
<path class="st0" d="M74.08,47.47c0,1.61-0.9,2.62-2.32,2.62c-1.43,0-2.32-1.01-2.32-2.62c0-1.61,0.89-2.62,2.32-2.62
	C73.18,44.85,74.08,45.86,74.08,47.47 M69.67,47.47c0,1.49,0.8,2.41,2.08,2.41c1.28,0,2.09-0.92,2.09-2.41
	c0-1.49-0.81-2.41-2.09-2.41C70.47,45.06,69.67,45.98,69.67,47.47"/>
<polygon class="st0" points="79.87,50.01 79.57,50.01 76.5,45.63 76.23,45.17 76.23,45.17 76.24,45.69 76.24,50.01 76.02,50.01 
	76.02,44.93 76.32,44.93 79.38,49.31 79.66,49.76 79.65,49.25 79.65,44.93 79.87,44.93 "/>
</svg>
